<svg width="222" height="40" viewBox="0 0 222 40" fill="none" xmlns="http://www.w3.org/2000/svg">
<g clip-path="url(#clip0)">
<path d="M0 33.7684C0 33.7684 0 34.8323 1.04893 34.8323H7.14077C7.14077 34.8323 8.1897 34.8323 8.1897 33.7684V25.4679C8.1897 24.1239 8.33245 23.019 8.61485 22.1062C9.79722 18.4108 12.9688 17.7844 14.9115 17.7844C15.9046 17.7844 16.2366 17.8568 16.2366 17.8568C16.2366 17.8568 16.5687 17.9292 16.5687 16.8653V9.76719C16.5687 9.76719 16.0939 9.66961 15.6222 9.66961C11.9789 9.66961 8.90036 12.4553 7.85764 15.8171H7.81109C7.81109 15.8171 7.76454 15.8171 7.79557 15.282C7.79557 15.282 7.85764 15.0962 7.85764 14.2778V11.1648C7.85764 11.1648 7.85764 10.1009 6.80871 10.1009H1.04893C1.04893 10.1009 0 10.1009 0 11.1648V33.7684ZM13.8222 22.5374C13.8222 30.2682 19.9762 35.4052 27.6445 35.4052C35.3128 35.4052 41.4667 30.2682 41.4667 22.5374C41.4667 14.7594 35.3128 9.52482 27.5979 9.52482C19.9762 9.52797 13.8222 14.7594 13.8222 22.5374ZM22.105 22.5374C22.105 18.7916 24.6622 16.4403 27.6445 16.4403C30.6268 16.4403 33.1839 18.7948 33.1839 22.5374C33.1839 26.236 30.6268 28.4929 27.6445 28.4929C24.6622 28.4929 22.105 26.236 22.105 22.5374ZM40.9919 33.7684C40.9919 33.7684 40.9919 34.8323 42.0409 34.8323H48.6603V34.0171C48.6603 33.249 48.6137 32.6258 48.6137 32.6258H48.7068C48.7068 32.6258 50.8854 35.4115 55.3821 35.4115C61.8681 35.4115 66.7434 30.3217 66.7434 22.4965C66.7434 14.813 62.3894 9.53426 55.7607 9.53426C51.4533 9.53426 49.1816 12.1752 49.1816 12.1752H49.1351C49.1351 12.1752 49.0885 12.1752 49.1351 11.1176C49.1351 11.1176 49.1816 11.3096 49.1816 10.0599V1.56429C49.1816 1.56429 49.1816 0.500366 48.1327 0.500366H42.0409C42.0409 0.500366 40.9919 0.500366 40.9919 1.56429V33.7684ZM48.9458 22.635C48.9458 18.3604 51.264 16.5379 53.7249 16.5379C56.5645 16.5379 58.5071 18.9396 58.5071 22.635C58.5071 26.428 56.2821 28.5401 53.7249 28.5401C50.5067 28.5401 48.9458 25.6127 48.9458 22.635ZM66.4113 33.7684C66.4113 33.7684 66.4113 34.8323 67.4603 34.8323H73.5521C73.5521 34.8323 74.601 34.8323 74.601 33.7684V11.1679C74.601 11.1679 74.601 10.104 73.5521 10.104H67.4603C67.4603 10.104 66.4113 10.104 66.4113 11.1679V33.7684Z" fill="#FDFDFD"/>
<path d="M77.813 33.7684C77.813 33.7684 77.813 34.8323 78.8619 34.8323H84.9568C84.9568 34.8323 86.0058 34.8323 86.0058 33.7684V23.8846C86.0058 22.6853 86.1485 21.5805 86.4806 20.6204C87.1912 18.5083 88.7522 17.0667 91.3094 17.0667C93.1093 17.0667 94.0062 18.0267 94.0062 20.3309V33.7684C94.0062 33.7684 94.0062 34.8323 95.0551 34.8323H101.15C101.15 34.8323 102.199 34.8323 102.199 33.7684V18.7948C102.199 11.8321 98.3663 9.52795 93.4414 9.52795C89.1339 9.52795 86.8157 11.8793 85.6768 13.8025H85.5837C85.5837 13.8025 85.6768 13.0817 85.6768 12.2665V11.1679C85.6768 11.1679 85.6768 10.104 84.6279 10.104H78.865C78.865 10.104 77.8161 10.104 77.8161 11.1679V33.7684H77.813Z" fill="#FDFDFD"/>
<path d="M209.267 28.5967C206.428 28.5967 204.485 26.195 204.485 22.4996C204.485 18.7066 206.71 16.5945 209.267 16.5945C212.485 16.5945 214.049 19.5219 214.049 22.4996C214.049 26.7711 211.728 28.5967 209.267 28.5967ZM184.558 28.5495C181.576 28.5495 179.019 26.2926 179.019 22.5972C179.019 18.8514 181.576 16.5001 184.558 16.5001C187.541 16.5001 190.098 18.8514 190.098 22.5972C190.098 26.2926 187.541 28.5495 184.558 28.5495ZM220.954 0.557007H214.859C214.859 0.557007 213.81 0.557007 213.81 1.62093V10.4471C213.81 11.0703 213.857 11.5519 213.857 11.5519H213.81C213.81 11.5519 213.764 11.5519 212.758 11.2434C212.758 11.2434 212.296 9.58461 207.371 9.58461C202.579 9.58461 198.803 12.3703 197.152 16.9786C194.986 12.4049 190.169 9.58461 184.509 9.58461C179.782 9.58461 175.953 11.5991 173.473 14.9861C174.926 17.3311 175.434 20.0979 175.434 23.0631C175.434 25.7606 174.389 28.326 173.135 30.5609C175.649 33.6519 180.003 35.4618 184.555 35.4618C190.191 35.4618 195.004 32.6856 197.164 28.1434C198.772 32.6478 202.393 35.4618 207.228 35.4618C212.246 35.4618 214.282 31.8609 214.282 31.8609H214.378C214.378 31.8609 214.332 32.4841 214.332 33.2522V34.0674C214.332 34.0674 214.332 34.8827 215.381 34.8827H220.954C220.954 34.8827 222.003 34.8827 222.003 33.8188V1.62093C222 1.62093 222 0.557007 220.954 0.557007Z" fill="#FDFDFD"/>
<path d="M145.407 23.0631C145.407 20.057 145.94 17.2556 147.427 14.8948C146.316 11.064 143.808 9.58777 140.361 9.58777C136.717 9.58777 133.828 11.6999 132.55 13.7648H132.453C131.175 10.9791 128.714 9.58777 125.638 9.58777C121.806 9.58777 119.531 12.1311 118.395 13.8623H118.302C118.302 13.8623 118.395 13.1415 118.395 12.3263V11.2277C118.395 11.2277 118.395 10.1638 117.346 10.1638H111.583C111.583 10.1638 110.535 10.1638 110.535 11.2277V33.8282C110.535 33.8282 110.535 34.8921 111.583 34.8921H117.678C117.678 34.8921 118.727 34.8921 118.727 33.8282V24.6589C118.727 23.6013 118.774 22.4996 118.963 21.5868C119.531 18.9459 120.856 17.1234 123.413 17.1234C124.974 17.1234 125.306 18.4202 125.306 20.2427V33.8251C125.306 33.8251 125.306 34.889 126.355 34.889H132.447C132.447 34.889 133.496 34.889 133.496 33.8251V24.6589C133.496 23.6517 133.496 22.6413 133.685 21.7788C134.207 19.0403 135.578 17.1202 138.182 17.1202C139.743 17.1202 140.075 18.4171 140.075 20.2396V33.8219C140.075 33.8219 140.075 34.8858 141.124 34.8858H147.551C147.551 34.8858 148.6 34.8858 148.6 33.8219V31.9585C146.785 29.4151 145.407 26.3115 145.407 23.0631Z" fill="#FDFDFD"/>
<path d="M168.154 21.4137H153.938C152.948 21.4137 152.147 20.6016 152.147 19.5975C152.147 18.5934 152.948 17.7813 153.938 17.7813H168.154C169.144 17.7813 169.945 18.5934 169.945 19.5975C169.945 20.5985 169.141 21.4137 168.154 21.4137ZM161.836 27.1614H153.938C152.948 27.1614 152.147 26.3493 152.147 25.3452C152.147 24.3411 152.948 23.529 153.938 23.529H161.836C162.826 23.529 163.626 24.3411 163.626 25.3452C163.626 26.3462 162.826 27.1614 161.836 27.1614ZM160.449 9.50598C153.432 9.50598 147.722 15.2977 147.722 22.4147C147.722 27.728 151.017 32.5723 155.924 34.4672L157.299 34.9992L156.451 36.2205C155.697 37.3065 154.754 38.405 153.637 39.4973C155.852 39.3839 160.092 38.2665 162.397 35.4462L162.655 35.1314L163.049 35.0496C168.918 33.8157 173.178 28.4992 173.178 22.4116C173.175 15.2977 167.465 9.50598 160.449 9.50598Z" fill="#FDFDFD"/>
</g>
<defs>
<clipPath id="clip0">
<path d="M0 0.500366H222V39.5004H0V0.500366Z" fill="white"/>
</clipPath>
</defs>
</svg>
